# xmcd
#
# Track frame offsets:
#	150
#	18280
#	44388
#	65719
#	81547
#	102249
#	124532
#	143271
#	168141
#	189602
#	210185
#
# Disc length: 3086 seconds
#
# Revision: 6
# Processed by: cddbd v1.4PL0 Copyright (c) Steve Scherf et al.
# Submitted via: audiograbber 1.80
#
DISCID=8a0c0c0b
DTITLE=Zucchero - Bluesugar
DYEAR=1900
DGENRE=
TTITLE0=You make me feel loved
TTITLE1=Blu
TTITLE2=Arcord
TTITLE3=Puro amore
TTITLE4=Back 2 u
TTITLE5=Donkey tonkey
TTITLE6=(Temporaneamente) X sempre tuo
TTITLE7=Eccetera eccetera
TTITLE8=Karma, stai kalma (featuring Irene Fornaciari)
TTITLE9=Dopo di noi
TTITLE10=I tempi cambieranno
EXTD=
EXTT0=
EXTT1=
EXTT2=
EXTT3=
EXTT4=
EXTT5=
EXTT6=
EXTT7=
EXTT8=
EXTT9=
EXTT10=
PLAYORDER=
